<svg xmlns="http://www.w3.org/2000/svg" version="1.1" xmlns:xlink="http://www.w3.org/1999/xlink" xmlns:svgjs="http://svgjs.dev/svgjs" width="1440" height="560" preserveAspectRatio="none" viewBox="0 0 1440 560"><g mask="url(&quot;#SvgjsMask1004&quot;)" fill="none"><rect width="1440" height="560" x="0" y="0" fill="rgba(246, 241, 241, 1)"></rect><path d="M 0,81 C 57.6,101 172.8,188.4 288,181 C 403.2,173.6 460.8,49.8 576,44 C 691.2,38.2 748.8,151.4 864,152 C 979.2,152.6 1036.8,45.6 1152,47 C 1267.2,48.4 1382.4,136.6 1440,159L1440 560L0 560z" fill="rgba(25, 167, 206, 1)"></path><path d="M 0,542 C 96,492.6 288,301.6 480,295 C 672,288.4 768,501.4 960,509 C 1152,516.6 1344,368.2 1440,333L1440 560L0 560z" fill="rgba(175, 211, 226, 1)"></path></g><defs><mask id="SvgjsMask1004"><rect width="1440" height="560" fill="#ffffff"></rect></mask></defs></svg>